<svg viewBox="0 0 90 16" xmlns="http://www.w3.org/2000/svg"><style>:root{fill:#000}@media (prefers-color-scheme:dark){:root{fill:#fff}}</style><path d="m6.21763.00503509h2.27187l-.00006 15.76966491h-2.27187z"/><path d="m2.70404.00503509h1.34445l-.00006 15.76966491h-1.34445z"/><path d="m.00006051.00503509h.53484449l-.00006 15.76966491h-.534845z"/><path d="m25.7847.949627 2.361-.003813v2.233376l-2.361.00381z"/><path d="m64.6182.954949h2.361v2.233371h-2.361z"/><path d="m13.1244 7.63944 8.2671-7.63944h3.1091l-8.4857 7.63944 8.7428 8.13516h-3.3662z"/><path d="m25.7847 15.7746v-11.47037h2.361v11.47037z"/><path d="m30.4308 15.7746v-11.47037h2.361v1.17183c.9195-.93146 2.1117-1.39719 3.5767-1.39719.9039 0 1.7065.1878 2.4078.56338.7013.37559 1.2467.90141 1.6363 1.57747s.5845 1.45728.5845 2.34366v7.21122h-2.3377v-6.82812c0-.90141-.265-1.60751-.7948-2.11831-.5299-.52582-1.2468-.78873-2.1507-.78873-.6389 0-1.2078.1277-1.7065.3831-.4831.25539-.8883.62347-1.2156 1.10422v8.24784z"/><path d="m48.9535 15.9775c-1.1688 0-2.2286-.2629-3.1792-.7888-.9351-.5258-1.6831-1.2394-2.2442-2.1408-.5454-.9014-.8181-1.908-.8181-3.0197 0-1.09674.2649-2.09581.7948-2.99721.5298-.90141 1.2467-1.61503 2.1506-2.14085s1.9169-.78873 3.039-.78873c1.0909 0 2.0649.27042 2.922.81127.8728.52582 1.5585 1.24695 2.0572 2.16338.5143.90141.7714 1.923.7714 3.06474v.631h-9.374c.1091.616.3428 1.1719.7013 1.6676.374.4958.8415.8864 1.4026 1.1719.5766.2854 1.2.4281 1.8701.4281.5922 0 1.1455-.0826 1.6598-.2479.5298-.1802.9818-.4281 1.3558-.7436l1.4961 1.4197c-.6857.5108-1.4026.8939-2.1506 1.1493-.7481.2404-1.5663.3606-2.4546.3606zm-3.8805-6.91835h7.0364c-.1091-.58591-.3273-1.10422-.6546-1.55492-.3273-.46573-.7402-.8263-1.2389-1.08169-.4832-.27043-1.013-.40564-1.5897-.40564-.5922 0-1.1376.1277-1.6363.3831s-.9117.61596-1.239 1.08169c-.3273.4507-.5532.97653-.6779 1.57746z"/><path d="m60.9362 15.9775c-1.1532 0-2.0337-.2554-2.6415-.7662-.6078-.5259-.9117-1.2845-.9117-2.2761v-6.73802h-2.5247v-1.89295h2.5247v-3.349281h2.3376v3.349281h3.5065v1.89295h-3.5065v6.21972c0 .5859.1325 1.0066.3974 1.262.265.2403.7169.3605 1.3559.3605.3117 0 .5922-.0225.8415-.0676.265-.045.5533-.1202.865-.2253v1.9155c-.3117.1051-.6779.1803-1.0987.2253-.4208.0601-.8026.0902-1.1455.0902z"/><path d="m64.6182 15.7746v-11.47037h2.361v11.47037z"/><path d="m74.6797 15.9775c-1.1376 0-2.174-.2629-3.1091-.7888-.9194-.5258-1.6519-1.2394-2.1974-2.1408-.5454-.9014-.8182-1.908-.8182-3.0197 0-1.11177.2728-2.11834.8182-3.01975.5455-.90141 1.278-1.61502 2.1974-2.14084.9351-.52583 1.9715-.78874 3.1091-.78874.9039 0 1.7688.16526 2.5948.49578.8416.33051 1.574.79624 2.1974 1.39718l-1.4727 1.55493c-.4519-.48075-.9584-.84131-1.5195-1.08169-.561-.24038-1.1454-.36056-1.7532-.36056-.7169 0-1.3715.17277-1.9637.51831-.5766.34554-1.0363.81878-1.3792 1.41972-.3429.60093-.5143 1.26948-.5143 2.00566 0 .7361.1714 1.4047.5143 2.0056s.8104 1.0742 1.4026 1.4197c.6078.3456 1.2702.5183 1.987.5183.6078 0 1.1767-.1126 1.7065-.338.5299-.2253 1.0286-.5709 1.4961-1.0366l1.426 1.4648c-.6234.6159-1.3481 1.0892-2.174 1.4197-.8104.3305-1.6598.4958-2.5481.4958z"/><path d="m85.0208 16c-1.0286 0-1.9948-.1427-2.8987-.4282-.8883-.3004-1.6598-.7211-2.3143-1.2619l1.2857-1.5099c.6078.4808 1.239.8413 1.8935 1.0817.6546.2404 1.3091.3606 1.9636.3606.8416 0 1.5273-.1578 2.0572-.4733s.7948-.7211.7948-1.2169c0-.4206-.1558-.7436-.4675-.969-.3117-.2404-.7948-.4056-1.4494-.4958l-2.1506-.3155c-1.1844-.1652-2.0728-.5183-2.665-1.05912-.5922-.54085-.8883-1.26198-.8883-2.16338 0-.69108.1948-1.29202.5844-1.80282.3896-.52582.9351-.93146 1.6364-1.2169.7013-.30047 1.5195-.45071 2.4545-.45071.8728 0 1.6987.12019 2.478.36057.7948.24037 1.5584.61596 2.2909 1.12676l-1.1689 1.48732c-.6701-.42066-1.309-.72864-1.9168-.92394-.6078-.19531-1.2312-.29296-1.8702-.29296-.7013 0-1.2779.15024-1.7298.4507-.4364.28545-.6546.66104-.6546 1.12676 0 .42066.1559.74367.4675.96902.3117.22535.8104.39061 1.4962.49577l2.1506.29296c1.1844.15024 2.0805.49578 2.6883 1.03667.6078.5408.9117 1.2619.9117 2.1633 0 .6911-.2182 1.3146-.6545 1.8705-.4364.5408-1.0286.969-1.7767 1.2845-.748.3155-1.5974.4732-2.548.4732z"/><path d="m13.1244.00503509h-2.472v15.76966491h2.472z"/></svg>
