<svg xmlns="http://www.w3.org/2000/svg" viewBox="0 0 16 16"><path d="M6.77 11.56C4.7 11.31 3.25 9.8 3.25 7.83c0-.8.28-1.66.75-2.23-.2-.53-.17-1.64.06-2.1a2.7 2.7 0 0 1 1.97.71c.6-.19 1.22-.29 1.99-.29q1.13 0 1.95.27a2.8 2.8 0 0 1 1.97-.7c.22.43.25 1.55.04 2.1.5.6.77 1.41.77 2.24 0 1.96-1.45 3.45-3.55 3.72.53.35.9 1.11.9 2v1.65c0 .48.38.75.85.56A8.1 8.1 0 0 0 16 8.2C16 3.68 12.4 0 7.98 0A8.1 8.1 0 0 0 0 8.2c0 3.54 2.2 6.47 5.17 7.58a.6.6 0 0 0 .83-.56v-1.28c-.22.1-.5.16-.75.16-1.03 0-1.64-.57-2.08-1.64-.17-.43-.36-.69-.72-.74q-.26-.04-.25-.19c0-.19.32-.33.63-.33.45 0 .84.28 1.25.87q.46.69 1.03.67c.57-.02.64-.14 1-.5q.38-.43.66-.68"/></svg>