<svg fill="#fff" stroke-width="2" viewBox="0 0 774 280" xmlns="http://www.w3.org/2000/svg"><path d="m386.5 1c24.326 0 45.581 5.59841 63.8 16.7637l.865.5351.005.0039c18.682 11.5297 33.089 27.6703 43.222 48.4512l.004.0088c10.39 20.7775 15.604 45.1803 15.604 73.2373 0 27.796-5.213 52.201-15.606 73.241l-.002.005c-10.133 20.781-24.54 36.922-43.222 48.451l-.005.004c-18.41 11.522-39.953 17.299-64.665 17.299s-46.388-5.777-65.063-17.303c-18.133-11.35-32.378-27.17-42.735-47.489l-.49-.971c-10.131-21.039-15.212-45.443-15.212-73.237 0-28.057 5.082-52.4595 15.212-73.2373 10.396-20.7867 24.804-36.9301 43.225-48.46 18.675-11.5253 40.351-17.3027 65.063-17.3027zm-241.675 4h64.485c2.761.00004 5 2.23861 5 5v147.314c0 3.866 3.134 7 7 7h21.69c2.761 0 5 2.239 5 5v40.457c0 2.762-2.239 5-5 5h-21.69c-3.866 0-7 3.134-7 7v48.229c0 2.761-2.239 5-5 5h-50.735c-2.761 0-5-2.239-5-5v-48.229c0-3.866-3.134-7-7-7h-140.575c-2.76141 0-4.99998-2.238-5-5v-42.631c0-1.22.44568-2.397 1.25293-3.311l138.82507-157.13955c.949-1.07422 2.314-1.68945 3.747-1.68945zm525 0h64.485c2.761.00007 5 2.23862 5 5v147.314c0 3.866 3.134 7 7 7h21.69c2.761 0 5 2.239 5 5v40.457c0 2.762-2.239 5-5 5h-21.69c-3.866 0-7 3.134-7 7v48.229c0 2.761-2.239 5-5 5h-50.735c-2.761 0-5-2.239-5-5v-48.229c0-3.866-3.134-7-7-7h-140.575c-2.761 0-5-2.238-5-5v-42.631c0-1.22.446-2.397 1.253-3.311l138.825-157.13955c.949-1.07421 2.314-1.68945 3.747-1.68945zm-283.325 48.2939c-13.021 0-24.361 3.5458-33.975 10.6641-9.344 6.8543-16.646 16.8446-21.936 29.9043l-.004.0107c-5.032 12.815-7.531 28.2-7.531 46.127 0 17.672 2.499 33.053 7.528 46.121l.004.008.003.009c5.29 13.058 12.588 23.171 21.922 30.281l.012.01.013.009c9.614 6.855 20.95 10.268 33.964 10.268s24.225-3.412 33.582-10.276l.004-.003c9.6-7.11 16.901-17.226 21.932-30.29l.001.001c5.295-13.073 7.927-28.461 7.927-46.138 0-17.372-2.469-32.359-7.441-44.9346l-.489-1.209c-4.874-12.6538-11.881-22.4254-21.05-29.2539l-.895-.6523c-9.353-7.1156-20.56-10.6563-33.571-10.6563zm-232.925 35.6485c0-6.4356-7.954-9.4604-12.23-4.6514l-60.7962 68.372c-4.0138 4.514-.8099 11.651 5.2305 11.651h60.7957c3.866 0 7-3.134 7-7zm525 0c0-6.4356-7.954-9.4604-12.23-4.6514l-60.796 68.372c-4.014 4.514-.81 11.651 5.23 11.651h60.796c3.866 0 7-3.134 7-7z"/></svg>