<svg fill="#fff" stroke-width="2" viewBox="0 0 774 280" xmlns="http://www.w3.org/2000/svg"><path d="m368.337 1c24.397.00004 45.665 5.77599 63.841 17.2959l.006.0039c18.444 11.5281 32.669 27.6683 42.675 48.4502l.005.0088c10.261 20.7785 15.409 45.1822 15.409 73.2412 0 27.798-5.148 52.205-15.412 73.246l-.002.004c-10.006 20.782-24.231 36.922-42.675 48.45l-.006.004c-18.176 11.52-39.444 17.296-63.841 17.296s-45.798-5.776-64.235-17.3c-18.187-11.528-32.416-27.671-42.681-48.459-10.004-21.04-15.021-45.445-15.021-73.241 0-28.058 5.019-52.4624 15.022-73.2412 10.266-20.788 24.492-36.9315 42.68-48.46l.001.001c18.437-11.52344 39.837-17.2998 64.234-17.2998zm259.672 0c24.397.00005 45.665 5.77597 63.841 17.2959l.005.0039c18.445 11.5281 32.67 27.6684 42.676 48.4502l.005.0088c10.261 20.7785 15.408 45.1822 15.408 73.2412 0 27.798-5.147 52.205-15.411 73.246l-.002.004c-10.006 20.782-24.231 36.922-42.676 48.45l-.005.004c-18.176 11.52-39.444 17.296-63.841 17.296s-45.798-5.776-64.236-17.3c-18.187-11.528-32.415-27.671-42.68-48.459-10.004-21.04-15.021-45.445-15.021-73.241 0-28.058 5.019-52.4624 15.022-73.2412 10.265-20.7878 24.492-36.9305 42.679-48.459 18.438-11.52352 39.839-17.2998 64.236-17.2998zm-582.7229 3.94336h166.0509c2.714 0 4.914 2.20013 4.914 4.91406v38.97558c0 2.7138-2.2 4.9141-4.914 4.9141h-113.3136c-3.6946.0002-6.7362 2.9049-6.9062 6.5957l-2.0029 43.4892c-.2412 5.236 5.1585 8.753 9.9404 6.955 5.9533-2.239 11.6643-3.782 17.1323-4.637 8.226-1.285 16.19-1.927 23.89-1.927 18.229 0 34.098 3.466 47.635 10.362l.006.004.007.003c13.54 6.642 23.992 16.08 31.385 28.317l.004.007.004.006c7.645 12.231 11.483 26.521 11.483 42.905 0 18.437-4.607 34.657-13.794 48.697-9.195 13.792-22.101 24.665-38.756 32.611-16.65 7.684-36.022 11.543-58.141 11.543-35.763 0-67.1199-10.82-94.1121-32.457-2.0863-1.673-2.3323-4.761-.5586-6.824l28.0654-32.642c1.7332-2.016 4.7776-2.292 6.9238-.651 9.8276 7.513 19.388 13.094 28.6817 16.721 10.721 4.184 22.0908 6.274 34.1028 6.274 9.671 0 18.09-1.569 25.226-4.741l.014-.005.014-.007c7.119-3.428 12.69-8.19 16.675-14.291 4.262-6.126 6.384-13.18 6.384-21.125 0-11.707-4.943-21.426-14.732-29.098-9.519-7.664-21.644-11.459-36.295-11.459-7.338 0-14.67 1.178-21.9924 3.528-6.6325 1.895-13.4645 4.751-20.4941 8.558-1.1896.644-2.5745.803-3.8516.424l-36.2041-10.764c-2.1631-.643-3.6096-2.677-3.5078-4.931l6.128-135.55226c.1186-2.6249 2.2816-4.69232 4.9091-4.69238zm323.0509 48.35054c-12.863 0-24.065 3.5477-33.561 10.668-9.228 6.8557-16.438 16.8468-21.662 29.9053l-.004.0098c-4.968 12.814-7.435 28.197-7.435 46.123 0 17.671 2.468 33.051 7.433 46.117l.006.016c5.223 13.057 12.429 23.171 21.648 30.282l.012.01.013.009c9.496 6.857 20.694 10.272 33.55 10.272 12.855 0 23.929-3.414 33.172-10.28l.004-.003c9.481-7.111 16.691-17.228 21.658-30.29 5.229-13.072 7.828-28.457 7.828-46.133 0-17.371-2.438-32.357-7.348-44.9307l-.483-1.2089c-4.965-13.0559-12.174-23.0446-21.659-29.8985-9.24-7.1227-20.315-10.6679-33.172-10.668zm259.672 0c-12.863 0-24.065 3.5477-33.561 10.668-9.229 6.8557-16.438 16.8468-21.662 29.9053l-.004.0098c-4.968 12.814-7.435 28.197-7.435 46.123 0 17.671 2.468 33.051 7.433 46.117l.006.016c5.223 13.057 12.429 23.171 21.648 30.282l.012.01.013.009c9.495 6.857 20.694 10.272 33.55 10.272 12.855 0 23.929-3.414 33.172-10.28l.004-.003c9.481-7.111 16.691-17.228 21.658-30.29 5.228-13.072 7.828-28.457 7.828-46.133 0-17.371-2.438-32.357-7.348-44.9307l-.483-1.2089c-4.965-13.0558-12.174-23.0446-21.659-29.8985-9.24-7.1228-20.315-10.6679-33.172-10.668z"/></svg>